/* XPM */
static char *_c22422dc4c84fbeb6983c0848d4a26ed7hFmNq9J2nGiIeU[] = {
/* columns rows colors chars-per-pixel */
"64 64 131 2 ",
"   c None",
".  c #AFB10B",
"X  c #B0B10C",
"o  c #B2B20D",
"O  c #B8B30B",
"+  c #B8BA27",
"@  c #C3B60E",
"#  c #D8B90D",
"$  c #CCBB1B",
"%  c #D6BB14",
"&  c #D4BE1A",
"*  c #D1BF1E",
"=  c #EBBD0E",
"-  c #ECBD0E",
";  c #EFBE0E",
":  c #BEC039",
">  c #FAC00F",
",  c #FEC10F",
"<  c #FEC110",
"1  c #FEC211",
"2  c #FEC313",
"3  c #FDC314",
"4  c #FDC315",
"5  c #FEC314",
"6  c #FDC316",
"7  c #FDC416",
"8  c #FDC417",
"9  c #F6C51C",
"0  c #FDC418",
"q  c #FDC518",
"w  c #FDC519",
"e  c #FDC51A",
"r  c #FDC51B",
"t  c #FDC61B",
"y  c #FDC61C",
"u  c #FDC61D",
"i  c #FCC71E",
"p  c #FCC71F",
"a  c #E9C625",
"s  c #F4C825",
"d  c #FCC820",
"f  c #FCC822",
"g  c #FCC923",
"h  c #FEC823",
"j  c #FBCA27",
"k  c #FCC925",
"l  c #FCCA26",
"z  c #FCCA27",
"x  c #F0CB2E",
"c  c #FBCA28",
"v  c #FBCB28",
"b  c #FBCB2A",
"n  c #FBCC2B",
"m  c #FBCD2D",
"M  c #FBCD2E",
"N  c #FBCD2F",
"B  c #FBCE30",
"V  c #FACE31",
"C  c #FACE32",
"Z  c #FACF32",
"A  c #FCCD30",
"S  c #FACF34",
"D  c #FCCF35",
"F  c #FAD035",
"G  c #FAD036",
"H  c #FAD037",
"J  c #FAD038",
"K  c #FAD138",
"L  c #FAD139",
"P  c #FBD23B",
"I  c #FBD23D",
"U  c #FBD23E",
"Y  c #C2C446",
"T  c #FBD442",
"R  c #FBD643",
"E  c #FBD444",
"W  c #FBD445",
"Q  c #FCD444",
"!  c #FDD445",
"~  c #FCD545",
"^  c #FCD546",
"/  c #FCD547",
"(  c #FCD64A",
")  c #FCD74A",
"_  c #FCD64B",
"`  c #FDD64B",
"'  c #FCD64C",
"]  c #FCD74D",
"[  c #FCD84B",
"{  c #FDD851",
"}  c #FCDA51",
"|  c #FDD852",
" . c #FDD953",
".. c #FCDD53",
"X. c #FDD954",
"o. c #FDD955",
"O. c #FDDA56",
"+. c #FCDD55",
"@. c #FCDE54",
"#. c #FCDF56",
"$. c #FDDA58",
"%. c #FDDA59",
"&. c #FEDB5A",
"*. c #FEDB5B",
"=. c #FDDF5A",
"-. c #FEDC5C",
";. c #FEDC5D",
":. c #FEDC5E",
">. c #FEDD5E",
",. c #FEDD5F",
"<. c #FEDE5F",
"1. c #FCE25C",
"2. c #CBCC61",
"3. c #CCCE65",
"4. c #CACB6A",
"5. c #CDCE68",
"6. c #FEDE60",
"7. c #FEDF60",
"8. c #FDE161",
"9. c #FEE061",
"0. c #FEE161",
"q. c #FDE361",
"w. c #FDE162",
"e. c #FDE262",
"r. c #FDE363",
"t. c #FDE460",
"y. c #FDE463",
"u. c #FDE464",
"i. c #FDE564",
"p. c #FDE565",
"a. c #FDE665",
/* pixels */
"                                                                                                                                ",
"                                                                                                                                ",
"                                                                            , ,                                                 ",
"                                                                        , , 6  ., <                                             ",
"                                                                  , , , L :.:.:.:.I , c                                         ",
"                                                            , ; , h :.:.:.:.:.:.:.:.:.i ,                                       ",
"                                                        , , r ) <.:.:.:.:.:.:.:.:.:.:.:.<.6 ,                                   ",
"                                                  , , , L <.:.:.:.:.:.:.:.:.:.:.:.:.:.:.:.:.<.; ,                               ",
"                                            , , , Q :.:.:.:.:.:.:.:.:.:.:.:.:.:.:.:.:.:.:.:.:.<.T , ,                           ",
"                                      , , , i :.:.:.:.:.:.:.:.:.:.:.:.:.:.:.:.:.:.:.:.:.:.:.:.:.<.9.H , <                       ",
"                                & , , , *.:.:.:.:.:.:.:.:.:.:.:.:.:.:.:.:.:.:.:.:.:.:.:.:.:.<.<.:.:.<.<.F , #                   ",
"                            , , , '  .:.<.:.:.:.:.:.:.:.:.:.:.:.:.:.:.:.:.:.:.<.:.:.:.:.:.:.:.<.:.:.:.:.<.<.< ,                 ",
"                    4.9 , , l <.<.9.<.:.:.<.<.<.:.:.:.:.<.<.<.:.:.:.<.<.:.:.<.<.:.:.<.<.! ! / / ! Q D V i 7 < , , ,             ",
"                * , , f *.<.:.' O.-.) E Q M H H m r 6 , , , , , , , , , , , , , , , , , , , , , , , , f 6 ; , c c S             ",
"            & ; , , , , , , , , , , , , , , , , , < , < l f H H { <.O.9.<.p.p.a.i.p.p.a.p.a.a.a.p.p.p.<.<.:.:.:.9.<.,           ",
"            ; :.<.<.:.<.p.p.p.p.9.p.i.i.i.i.a.a.a.p.p.p.a.a.a.a.p.p.p.p.p.p.a.a.p.p.p.a.p.a.a.a.a.p.p.p.<.6.:.<.<.:.,           ",
"            < *.:.:.:.9.p.p.a.a.a.a.a.a.i.1.a.a.a.a.a.a.a.a.a.a.a.a.i.a.a.a.a.a.a.a.a.a.a.a.a.a.a.a.a.a.i.1.<.:.:.:.,           ",
"            , <.:.<.:.:.p.p.a.a.a.a.a.a.a.a.a.a.a.a.a.a.a.a.a.a.a.a.a.a.a.a.a.a.a.a.a.a.a.a.a.a.a.a.a.a.p.9.:.:.9.:.,           ",
"            , :.<.<.9.<.p.a.a.a.a.a.a.a.a.a.a.a.a.a.a.a.a.a.a.a.a.a.a.a.a.a.a.a.a.a.a.a.a.a.a.a.a.a.a.a.p.p.:.:.<.:.<           ",
"            ; <.:.<.<.:.a.a.a.a.a.a.a.a.a.a.a.a.a.a.a.a.a.a.a.a.a.a.a.a.a.a.a.a.a.a.a.a.a.a.a.a.a.a.a.a.i.i.:.:.:.:.,           ",
"            , <.:.:.:.:.a.a.a.a.a.a.a.a.a.a.a.a.a.a.a.a.a.a.a.a.a.a.a.a.a.a.a.a.a.a.a.a.1.H H a.a.a.a.a.a.a.<.:.:.<.,           ",
"            , :.:.i.:.:.a.a.a.a.a.a.a.a.a.a.a.a.a.a.a.a.a.a.a.a.a.a.a.a.a.a.a.a.a.a.i.> , , , , , a.a.a.a.a.<.<.S H ,           ",
"            , :.:.:.<.<.a.a.a.a.a.a.a.a.a.a.a.a.a.a.a.a.a.a.a.a.a.a.a.a.a.a.a.a.a.a.F > , , , , , , a.a.a.a.-., , ,             ",
"            , :.:.:.*.<.a.a.a.p.a.a.a.a.a.a.a.a.a.a.a.a.a.a.a.a.a.a.a.a.a.a.a.a.a.a., > , , , , , , ! a.a.a., 5.                ",
"            S :.6.<.6.:.<.i.p.p.a.a.a.a.a.a.a.a.a.a.a.a.a.a.a.a.a.a.a.a.a.a.a.a.a.i., , , , , , , , , a.p.p.x                   ",
"          2.*.<.<.:.:.:.<.p.p.p.a.a.a.a.a.a.a.a.a.a.a.a.a.a.a.a.a.a.a.a.a.a.a.a.a.p., , , , , , , , , H a.V                     ",
"          , <.) :.<.:.:.<.i.a.a.a.a.a.a.! , n 7 a.a.a.a.a.a.a.a.a.a.a.a.a.a.a.a.a.i., , , , , , , , , , a.7                     ",
"          , , , :.6.:.:.<.p.a.a.a.a.a.1 , , , , @.a.a.a.a.a.a.a.a.a.a.a.a.a.a.a.a.a., , , , , , , , , , p.,                     ",
"              - , :.:.:.:.<.p.a.a.a.7 , , , , , , p.a.a.a.a.a.a.a.a.a.a.a.a.a.a.a.a., , , , , , , , , , 9.,                     ",
"                , H :.:.:.:.p.p.a.u , , , , , , , a.a.a.a.a.a.a.a.a.a.a.a.a.a.a.a.a., , , , , , , , , , [ ,                     ",
"                  < <.:.:.:.p.p.p., , , , , , , , a.a.a.a.a.a.a.a.a.a.a.a.a.a.a.a.a., , , , , , , , , , I ,                     ",
"                  S <.<.:.6.9.p.7 , , , , , , , , a.a.a.a.a.a.a.a.a.a.a.a.a.a.a.a.a.m , , , , , , , , , I ,                     ",
"                    h <.:.:.<.p., , , , , , , , , a.a.a.a.a.a.a.a.a.a.a.a.a.a.a.a.a.i., , , , , , , , , P f                     ",
"                    ; :.:.:.:.6., , , , , , , , u a.a.a.a.a.a.a.a.a.a.a.a.a.a.a.a.a.i.1 , , , , , , , ,  .9.                    ",
"                    , :.:.<.:.r , , , , , , , ,  .a.a.a.a.a.a.a.a.a.a.a.a.a.a.a.a.a.i.1., , , , , , , , 9.a.,                   ",
"                    . *.:.<.:., , , , , , , , , i.a.a.a.a.a.a.a.a.a.a.a.a.a.a.a.a.i.i.a.1., , , , , , , p.p.<                   ",
"                      l :.:.:., , , , , , , , , p.a.a.a.a.a.a.a.a.a.a.a.a.a.a.a.a.a.a.a.p.i., , , , , , p.a.p.<                 ",
"                      , :.:.<., , , , , , , , H a.a.a.a.a.a.a.a.a.a.a.a.a.a.a.a.a.a.a.a.p.a.a., , , , H a.a.p.n 7 Y 1           ",
"                      , :.:.:., , , , , , , , a.a.a.a.a.a.a.a.a.a.a.a.a.a.a.a.a.a.a.a.a.p.a.a.a.1.@.1.p.a.a.a.p.u , ,           ",
"                      , :.:.:., , , , , , , V a.a.a.a.a.a.a.a.a.a.a.a.a.a.a.a.a.a.a.a.a.a.a.a.a.i.p.p.p.a.a.a.1.<.<.,           ",
"                      , <.9.i., , , , , , , i.i.a.a.a.a.a.a.a.a.a.a.a.a.a.a.a.a.a.a.a.a.a.a.a.a.a.a.a.a.a.a.a.:.9.<.,           ",
"                      , :.:.:., , , , , , <.<.i.a.a.a.a.a.a.a.a.a.a.a.a.a.a.a.a.a.a.a.a.a.a.a.a.a.a.a.a.a.a.a.:.:.<.,           ",
"                      , :.<.:.b , , , , <.a.i.p.a.a.a.a.a.a.a.a.a.a.a.a.a.a.a.a.a.a.a.a.a.a.a.a.a.a.a.a.a.a.a.:.:.:.,           ",
"                      , :.9.:.:.<.F H <.i.a.a.p.a.a.a.a.a.a.a.a.a.a.a.a.a.a.a.a.a.a.a.a.a.a.a.a.a.a.a.a.a.a.<.:.:.:.,           ",
"                      < 9.:.<.6.<.p.a.a.p.a.a.a.a.a.a.a.a.a.a.a.a.a.a.a.a.a.a.a.a.a.a.a.a.a.a.a.a.a.a.a.a.a.<.<.:.<.,           ",
"                      M 6.9.:.:.:.1.a.a.a.a.a.a.a.a.a.a.a.a.a.a.a.a.a.i.a.a.a.a.a.a.a.a.a.a.a.a.a.a.a.a.a.a.:.<.:.p.,           ",
"                    r *.<.<.:.:.:.r.a.a.a.a.a.a.a.a.a.a.a.a.a.a.a.a.a.[ m m a.a.a.a.a.a.a.a.a.a.a.a.a.a.a.e.i.O.! 9.,           ",
"            < -     ; :.<.:.:.6.:.:.a.a.a.a.a.a.a.a.a.a.a.a.a.a.a.a.V , , , < a.a.a.a.a.a.a.a.a.a.a.a.a.a.9.:., , i.s           ",
"            , , , , { :.:.:.9.<.:.:.9.a.a.a.p.p.p.p.a.a.a.a.a.a.a.i., , , , , i.a.a.a.a.a.a.a.a.a.a.a.a.a.6.< , , <..           ",
"            , 6.:. .:.<.:.:.:.6.6.:.<.a.a.T , , , H a.a.a.a.a.a.a.-., , , , , i.a.a.a.a.a.a.a.a.a.a.a.a.e.:.< , ,               ",
"            , 6.:.:.:.9.9.:.:.:.:.:.6.9.r , o 3.+ , , a.a.a.a.a.a.F , , , , , i.a.a.a.a.a.a.a.a.a.a.a.a.:.d , , , /             ",
"            , :.:.:.:.< < < :.:.:.<.6.:.,           . , a.a.a.a.i.-., , , , F i.a.a.a.a.a.a.a.a.a.a.a.a.:., , , m H             ",
"            < <.:.:.m , , , , <.<.6.<.k :             , a.a.a.a.i.a., , , H a.a.a.a.a.a.a.a.a.a.a.a.a.:.E , , , <.,             ",
"            % ) :.<.< , , , , :.<.:.:.,                 H a.a.a.a.a.a.a.a.a.a.a.a.a.a.a.a.a.a.a.a.a.e.:.m , < S :.,             ",
"              7 :.:., , , , , :.6.<.<.,                 , a.a.a.a.a.a.a.a.a.a.a.a.a.a.a.a.a.a.a.a.a.<.:.:., k :.:.,             ",
"              < :.:., , , , , 6.6.:.:.,                 , a.a.a.a.a.a.a.a.a.a.a.a.a.a.a.a.a.a.a.a.6.<.:.:.:.:.:.O.,             ",
"              . 7 :.S , , < <.<.:.:.:.,                   r 1.p.a.a.a.a.a.p.a.a.p.p.p.i.p.a.a.a.p.:.<.9.<.<.< , , .             ",
"                < < :.<.:.6.:.:.:.:.:.,                   , , , , , , , l H R O.9.6.@.<.H P H , , , , , , , <                   ",
"                  < , H :.:.:.:.<.:.9.6                             . @ , , , , , , , < , , , - a .                             ",
"                    O , , , , , , , , ,                                                                                         ",
"                                                                                                                                ",
"                                                                                                                                ",
"                                                                                                                                ",
"                                                                                                                                "
};
