/* XPM */
static char *_52357d6daf6495abbd0e1bd4c0e7252w5YzsEeNe1IgrBwR[] = {
/* columns rows colors chars-per-pixel */
"64 64 149 2 ",
"   c None",
".  c #000000",
"X  c #090000",
"o  c #0D0C04",
"O  c #0B0B0B",
"+  c #170809",
"@  c #190A07",
"#  c #131313",
"$  c #1B1B1B",
"%  c #280102",
"&  c #211F0A",
"*  c #281707",
"=  c #311D09",
"-  c #260D10",
";  c #24230C",
":  c #3C230C",
">  c #353212",
",  c #3B3914",
"<  c #383613",
"1  c #202020",
"2  c #2A2A2A",
"3  c #28313C",
"4  c #3B3B3B",
"5  c #313131",
"6  c #400406",
"7  c #590609",
"8  c #7A0A0E",
"9  c #45230C",
"0  c #4A250C",
"q  c #492D10",
"w  c #4D3011",
"e  c #413F17",
"r  c #533212",
"t  c #653B15",
"y  c #523435",
"u  c #69292D",
"i  c #67282C",
"p  c #444118",
"a  c #414614",
"s  c #6F4318",
"d  c #555120",
"f  c #5E5A22",
"g  c #625E25",
"h  c #666227",
"j  c #6E6929",
"k  c #6A6629",
"l  c #726D2C",
"z  c #76712D",
"x  c #7D7831",
"c  c #0F3B4C",
"v  c #16566C",
"b  c #39506B",
"n  c #494949",
"m  c #505050",
"M  c #6A6A6A",
"N  c #656565",
"B  c #9D0C11",
"V  c #EC151C",
"C  c #814217",
"Z  c #814E1C",
"A  c #84501D",
"S  c #897826",
"D  c #B36E29",
"F  c #ED513D",
"G  c #E1643F",
"H  c #7F8729",
"J  c #7C8427",
"K  c #929201",
"L  c #9F9E12",
"P  c #A09F13",
"I  c #B3B711",
"U  c #B6B914",
"Y  c #838A2B",
"T  c #8A8434",
"R  c #959933",
"E  c #9A9339",
"W  c #999D3D",
"Q  c #A39C3E",
"!  c #9CA036",
"~  c #A8A720",
"^  c #AAAB3D",
"/  c #A0A238",
"(  c #BEBA3D",
")  c #B7B535",
"_  c #C9C829",
"`  c #DED93F",
"'  c #9DA140",
"]  c #AEA641",
"[  c #AFA841",
"{  c #A9AC49",
"}  c #B4AC43",
"|  c #BFB648",
" . c #BAB749",
".. c #9DA264",
"X. c #AFB47C",
"o. c #C2C047",
"O. c #CFC64F",
"+. c #CBC84C",
"@. c #D0C74F",
"#. c #C6C55E",
"$. c #D2C850",
"%. c #D8CF53",
"&. c #D9D353",
"*. c #DFD955",
"=. c #E2DB56",
"-. c #E0D756",
";. c #F1DD5B",
":. c #E7E149",
">. c #EBE25A",
",. c #F3EA56",
"<. c #F1E75D",
"1. c #F5EB5E",
"2. c #CFC96A",
"3. c #DDD769",
"4. c #E1DB6E",
"5. c #E2DC71",
"6. c #FBD07E",
"7. c #FDEE63",
"8. c #F4EB6C",
"9. c #FFF463",
"0. c #E7E177",
"q. c #E8E176",
"w. c #1D6883",
"e. c #278AAE",
"r. c #38BEEE",
"t. c #37BDED",
"y. c #39C2F3",
"u. c #868686",
"i. c #818E93",
"p. c gray62",
"a. c #939393",
"s. c #B2B680",
"d. c gray65",
"f. c #D58E90",
"g. c #F7A49E",
"h. c #F6A4A6",
"j. c #E4BBB6",
"k. c #D3D6B9",
"l. c #AAD7EC",
"z. c #B3E3F9",
"x. c gray77",
"c. c #CACACA",
"v. c #DADCC7",
"b. c #EAEBDC",
"n. c #E3E3E3",
"m. c gray91",
"M. c #F5F5EE",
"N. c gray95",
"B. c #FFFFFF",
/* pixels */
"                                                                                                                                ",
"                                                                                                                                ",
"                      H H H       H H H       H H H H                                                                           ",
"                    H 8.9.9.1.9.9.9.9.9.9.>.9.9.9.9.9.H H H Y  .*.H H H Y H ^ H H H H H H                                       ",
"                  H 0.0.9.9.9.9.9.9.9.9.9.9.9.9.9.9.9.9.9.9.9.9.9.9.9.9.9.9.9.9.9.9.9.9.9.H                                     ",
"                  Y 0.0.9.9.9.9.9.I I I 9.9.9.9.9.9.9.9.9.9.9.9.9.9.9.9.9.9.9.9.9.9.9.I ,.9.                                    ",
"                H 0.0.0.9.9.9.9.I I I I ,.9.9.9.9.. 9.9.9.9.9.9.9.9.9.9.p 9.9.9.9.9.I I I 9.H                                   ",
"              H 0.0.0.0.o.9.9.9.I I I I 9.X >.9.9.. 9.9.. 9.9.9.9.. 9.9.. 9.9.9.9.9.I I 9.9.                                    ",
"            H 0.0.K K 0.Y 9.9.9.I I I :.9.9.. 9.; . . z k 9.9.9.9.. 9.E . 9.9.. 9.9.9.9.9.*.                                    ",
"            0.0.( K K 3.0.=.9.9.9.9.9.9.9.9.. B.B.B.B.B.B.T 9.9.9.m.B.B.B.B.B.> 9.9.9.9.9.R                                     ",
"          H 0.0.K K K 4.0.5.9.9.9.I I 9.9.u.B.B.B.B.B.B.B.B.<.%.B.B.B.B.B.B.B.B.>.9.9.9.9.o.                                    ",
"        H 0.0.0.K K K 0.0.0.9.9.9._ 9.9.< B.B.B.B.B.B.B.B.B.n.B.B.B.B.B.B.B.B.B.B.9.9.9.9.9.                        . .         ",
"        0.0.0.0.P K K 0.0.0.9.9.9.9.9.9.m.B.B.B.B.B.B.. # B.B.B.B.B.p.M B.B.B.B.B.e 9.9.9.9.H                     . 9.9.        ",
"        0.0.0.0.0.K 0.0.0.0.9.9.9.9.9.9.B.B.B.B.B.B.y.w.w.c B.M B.v y.t.e.B.B.B.B.m 9.9.9.9.H                   . 9.9..         ",
"        H 0.0.0.0.0.0.0.0.0.=.9.9.9.9.9.B.B.B.B.B.4 y.. . y.B.n B.y.. . y.B.B.B.B.d.9.9.9.9.                    $.9..           ",
"        J 0.0.0.0.0.0.0.0.0.R 9.9.9.9.9.B.B.B.B.B.n.y.. . r.B.N.B.y.. . y.B.B.B.B.2 9.9.9.R                   . 9.;             ",
"          H 0.0.0.0.0.0.0.0.Y 9.9.9.9.9.# B.B.B.B.B.# y.t.B.B.B.B.$ y.y.. B.B.B.B.^ 9.9.9.H               . T . 9.9..           ",
"            0.0.0.0.K K 0.0.0.9.9.9.9.9.F 9.9.F j.B.B.B.B.B., B.B.B.B.B.B.B.B.p.1.@.9.9.9.Y             . 9.9.} . 9.9.          ",
"            { 0.0.L K K 0.0.0.9.9.9.9.9.9.9.9.9.7.F B.B.B.o 9.9.B.B.B.B.B.O 9.9.9.9.. 9.9.W             ; 7.9.&.9.9.9.          ",
"            H 0.0.K K K 0.0.0.9.9.9.9.9.;.9.9.9.9.9.B.O 9.9.9.9.9.. . $.9.9.9.9.9.9.9.9.9.=.            o 9.9.<.9.&.9.          ",
"            H 0.0.K K P 0.0.0.9.9.9.9.9.9.9.x j 9.G 9.9.9.9.9.9.9.9.9.9.9.9.9.9.. 9.9.9.9.!               9.9.9.T 9..           ",
"              H 0.0.L 0.( K 0.9.9.9.9.9.9.9.e 9.9.9.9.9.9.9.9.9.9.X d h ; . . 9.9.9.9.9.9.H                 9.9.9..             ",
"                0.0.0.0.K K K ^ 9.9.9.9.9.9.> + >.9.9.9.9.9.9.9.9.9.9.9.< 9.9.9.9.9.9.9.9.H               . 9..                 ",
"                { 0.0.0.K K K 0.9.9.9.9.9.9., u u @ . E 9.9.9.9.9.9.9.9.| & & 9.9.9.9.9.9.H               -.O.                  ",
"                W 0.0.0.K K K 0.9.9.9.9.9.9.d u u u u u c.B.B.. u B.B.B.. 9.9.9.9.9.9.9.9.              . 9..                   ",
"                H 0.0.0.K K ~ 0.+.9.9.9.9.9.h i u u u u B.B.B.$ u B.B.B.. 9.9.9.U I I 9.9.              p 9.                    ",
"                  ' 0.0.4.K 0.0.&.9.9.9.9.9.x u u u u u B.B.B.2 u c.n.N., 9.9.9.I I I _ 9.H             9..                     ",
"                    0.0.0.0.0.0.>.9.9.9.9.9.] u u u u u u u u u u . 9.9.9.9.9.9.I I I 9.9.H           f 9.                      ",
"                    Y 0.0.0.0.0.R 9.9.9.9.9.9.i u u u u u u u u u [ 9.9.9.9.9.9.I U 9.9.9.  . .     . 9..                       ",
"                    H 0.0.0.K 5. .9.9.9.9.9.9.h.h.f.. i - u u u u 9.9.9.9.9.9.9.9.9.9.9.H B.B.B.  . 9.9.                        ",
"                      . 0.K K 0.0.9.9.I 9.9.9.. h.h.h.h.h.h.y u u 9.9.9.9.9.9.9.I I 9.9.H B.x.9.9.9.9..                         ",
"                    $ B.B.K ) 0.0.9.9.9.9.9.9.9.. h.h.h.h.h.h.. . 9.9.9.9.9.9.I I I 9.9.b.B.B.. . .                             ",
"                    B.B.B.2.0.0.0.9.9.` I I 9.6.9.9.>.. . . . | 9.9.9.9.9.9.9.:.I 9.9.9.M.B.B.B.                                ",
"                    B.B.B.# 0.0.0.9.9.I I I 9.9.g.9.9.9.9.9.9.9.9.7.9.9.9.9.9.9.9.9.9.9., . . .                                 ",
"                  . B.B.B.N.0.0.0.9.9.I I 9.9.9.9.9.9.9.9.9.9.9.9.9.9.9.9.9.9.9.9.9.9.1.                                        ",
"                  . B.B.B.B.H H #.0.9.9.9.9.9.9.9.9.*.1.9.9.9.9.9.9.9.9.9.9.9.9.9.9.9.H                                         ",
"                    O B.B.. z.z.z.z.X.B.B.B...J k.B.B.B.B.a H S X N.B.B.X.J B.B.B.B.v.                                          ",
"                      9.> z.z.z.z.z.B.B.B.B.B.B.c.4 B.B.a.B.B V B.B.N B.n.B.B.B.B.B.N.                                          ",
"                      $.k 9 . l.z.z.B.B.B.B.B.B.B.B.B.B.B.B.. V B.B.B.B.B.B.B.B.B.B.B.                                          ",
"                      g } C . . 0 C D D D D D D D D D D D D V V r D D D D D D D D D t                                           ",
"                      . 7.s C 0 . C D D . . . . D D . . . . V V 7 . . . D . . . . . r                                           ",
"                      . 9.C C C C C D D D D D D D D D D D A V V . D D D D D D D D D =                                           ",
"                      . 9.C C C C C D D D D D D D D D D D D s 6 D D D D D D D D D D .                                           ",
"                      . 9.. . C C C D D D D D D D D D D D D D D D D D D D D D D D D .                                           ",
"                      9.9.9..   . . w r r w q : = * o X . . . . . . . . . . . . . . .                                           ",
"                    . 9.9.9..   . D D D D D D D             . D D D D D D                                                       ",
"                    . 9.9.9.9.    D D D D D D Z                 X q = .                                                         ",
"                    . 9.9.. 9.      . . . .                     . 9.                                                            ",
"                    . 9.9..           9..                       . 7.                                                            ",
"                      o Q 9.          9..                       > -.                                                            ",
"                                      9..                       l }                                                             ",
"                                      9..                       o X                                                             ",
"                                      B..                       b 3                                                             ",
"                                      B..                       8 %                                                             ",
"                                      B..                       d.n                                                             ",
"                                      B..                       5 m                                                             ",
"                                  . . u..                     . . . .   . .                                                     ",
"                                  . . . . . . .               . . . . . m . .                                                   ",
"                                  . . . . . . . .             . . . . . . . .                                                   ",
"                                  . . . . . . . . .             . i.. . . . .                                                   ",
"                                      . . . . . .                       .                                                       ",
"                                            . .                                                                                 ",
"                                                                                                                                ",
"                                                                                                                                "
};
